<?xml version="1.0" encoding="UTF-8" standalone="no"?>
<svg xmlns="http://www.w3.org/2000/svg" version="1.1" width="461.875" height="84.2" viewBox="0 0 461.875 84.2">
<defs><style type="text/css"><![CDATA[
path { fill:#b79a1a;fill-opacity:1;fill-rule:nonzero;stroke:none }
]]></style></defs>
<g transform="matrix(1.25,0,0,-1.25,0,84.2)">
<path d="m 25.6063,23.8254 c 0,2.043 -0.3348,3.6637 -1.0024,4.8609 -0.6691,1.1965 -1.7625,1.7961 -3.2809,1.7961 l -4.1003,0 c -0.4868,0 -0.8813,-0.1465 -1.1844,-0.4386 -0.3047,-0.2926 -0.4559,-0.6434 -0.4559,-1.0504 l 0,-16.5547 c 0,-0.3508 0.1211,-0.6875 0.3645,-1.0078 0.2422,-0.3215 0.5469,-0.4817 0.9117,-0.4817 l 4.4644,0 c 1.5793,0 2.6887,0.5254 3.3262,1.5774 0.6379,1.0504 0.9571,2.364 0.9571,3.9414 l 0,7.3574 z M 15.5824,42.0438 c 0,-0.818 0.1821,-1.3286 0.5469,-1.5325 0.3645,-0.205 0.8801,-0.3363 1.5488,-0.3941 l 2.2785,0 c 1.3965,0 2.5356,0.4078 3.4168,1.2262 0.8801,0.8171 1.3215,1.9843 1.3215,3.5039 l 0,5.6933 c 0,1.9266 -0.4258,3.3422 -1.2754,4.2481 -0.8515,0.9047 -2.0664,1.3578 -3.6453,1.3578 l -2.0961,0 c -0.8511,0 -1.4121,-0.1176 -1.6855,-0.3504 -0.2735,-0.234 -0.4102,-0.7313 -0.4102,-1.4895 l 0,-12.2628 z m 19.2274,-7.62 c 1.3968,-0.9347 2.3234,-2.2773 2.7793,-4.0293 0.4558,-1.7519 0.6836,-3.6789 0.6836,-5.7812 l 0,-9.5469 c 0,-4.3223 -1.2762,-7.75195 -3.8274,-10.29218 C 31.8941,2.23438 28.0352,0.964063 22.8727,0.964063 L 0,0.964063 0,6.39453 c 0,1.1668 0.166797,2.07227 0.501563,2.71485 0.332812,0.64257 0.803907,1.10942 1.412497,1.40232 0.30313,0.116 0.57657,0.3352 0.81992,0.6563 0.24219,0.3203 0.36446,0.7453 0.36446,1.2707 l 0,42.4812 c 0,0.9336 -0.36446,1.5465 -1.09375,1.8395 C 1.39688,57.0508 0.911719,57.5328 0.546875,58.2047 0.182422,58.8754 0,59.8539 0,61.1391 l 0,5.3429 21.9613,0 c 5.1625,0 9.0211,-1.3004 11.5731,-3.898 2.5511,-2.5988 3.8269,-6.0586 3.8269,-10.3793 l 0,-7.3574 c 0,-1.8114 -0.1679,-3.5192 -0.5015,-5.1243 -0.3344,-1.607 -1.0789,-2.9054 -2.2325,-3.8976 -0.3046,-0.2934 -0.4257,-0.5559 -0.364,-0.7887 0.0594,-0.234 0.2418,-0.4383 0.5465,-0.6129" />
<path d="m 67.7055,52.2047 c 0,1.0512 -0.2137,1.8969 -0.6379,2.5398 -0.4254,0.6422 -0.927,1.1387 -1.5035,1.4895 -0.5782,0.35 -1.1703,0.598 -1.777,0.7445 -0.6078,0.1449 -1.0933,0.2188 -1.4578,0.2188 -0.3645,0 -0.852,-0.0586 -1.4582,-0.1754 -0.6078,-0.1176 -1.2156,-0.3364 -1.8223,-0.6567 -0.6086,-0.3218 -1.139,-0.7746 -1.5945,-1.3574 -0.4559,-0.5844 -0.684,-1.373 -0.684,-2.3652 l 0,-37.4895 c 0,-0.8758 0.1824,-1.6062 0.5473,-2.189 0.364,-0.584 0.8195,-1.0508 1.3664,-1.4016 0.5469,-0.3508 1.1535,-0.6133 1.8226,-0.7883 0.6676,-0.1758 1.2754,-0.2625 1.8227,-0.2625 1.2758,0 2.4898,0.3496 3.6449,1.0508 1.1531,0.7004 1.7313,1.9266 1.7313,3.6785 l 0,36.9637 z M 62.3293,0.350781 c -5.65,0 -10.1148,1.210549 -13.3957,3.634379 -3.2805,2.42304 -4.9203,5.8832 -4.9203,10.38004 l 0,38.8907 c 0,4.4957 1.6246,7.9707 4.875,10.4234 3.2488,2.4527 7.7301,3.6785 13.441,3.6785 5.7707,0 10.2199,-1.2258 13.3492,-3.6785 3.1285,-2.4527 4.693,-5.9277 4.693,-10.4234 l 0,-38.8907 c 0,-4.49684 -1.5801,-7.957 -4.7383,-10.38004 C 72.4734,1.56133 68.0387,0.350781 62.3293,0.350781" />
<path d="m 99.5973,46.8617 c 0,-1.1687 0.5607,-2.234 1.6857,-3.1972 1.123,-0.9633 2.536,-1.927 4.238,-2.8907 1.699,-0.9633 3.522,-1.9707 5.467,-3.0218 1.943,-1.0508 3.766,-2.2485 5.467,-3.5911 1.7,-1.3433 3.113,-2.8765 4.237,-4.5984 1.124,-1.7234 1.686,-3.7527 1.686,-6.0879 l 0,-10.073 c 0,-2.22 -0.532,-4.16058 -1.594,-5.82465 -1.064,-1.66367 -2.447,-3.03711 -4.146,-4.11679 -1.702,-1.08125 -3.631,-1.88321 -5.787,-2.4086 -2.157,-0.524997 -4.36,-0.788669 -6.606,-0.788669 -2.249,0 -4.4657,0.263672 -6.6528,0.788669 -2.1867,0.52539 -4.1317,1.32735 -5.832,2.4086 -1.7012,1.07968 -3.0684,2.45312 -4.1004,4.11679 -1.0336,1.66407 -1.5489,3.60465 -1.5489,5.82465 l 0,7.4453 7.4719,0 c 1.6402,0 2.8707,-0.4817 3.6906,-1.4453 0.8204,-0.9629 1.2305,-2.1172 1.2305,-3.459 l 0,-1.7524 c 0,-0.9351 0.5606,-1.7515 1.6851,-2.4527 1.124,-0.7004 2.475,-1.0512 4.056,-1.0512 1.579,0 2.9,0.4231 3.963,1.2707 1.063,0.8457 1.595,1.6778 1.595,2.4961 l 0,6.8321 c 0,1.9265 -0.562,3.5175 -1.686,4.7734 -1.124,1.2551 -2.521,2.3652 -4.191,3.3281 -1.672,0.9641 -3.494,1.8836 -5.4682,2.7598 -1.9742,0.8762 -3.7973,1.9402 -5.4672,3.1969 -1.6718,1.255 -3.0683,2.7726 -4.1918,4.5546 -1.1246,1.7805 -1.6855,4.043 -1.6855,6.7883 l 0,7.3575 c 0,2.3351 0.4695,4.3359 1.4121,6.0003 0.9414,1.6645 2.2012,3.0356 3.7816,4.1164 1.5793,1.0801 3.4016,1.8684 5.468,2.3653 2.0645,0.4957 4.221,0.7445 6.47,0.7445 2.246,0 4.403,-0.2777 6.469,-0.8324 2.065,-0.5551 3.873,-1.3727 5.422,-2.452 1.55,-1.0816 2.78,-2.4527 3.691,-4.1171 0.911,-1.6641 1.367,-3.6059 1.367,-5.825 l 0,-7.3575 -6.835,0 c -1.519,0 -2.795,0.4383 -3.827,1.3141 -1.033,0.8758 -1.549,2.0141 -1.549,3.416 l 0,1.8395 c 0,1.2261 -0.501,2.175 -1.504,2.8464 -1.002,0.6707 -2.111,1.0075 -3.326,1.0075 -1.276,0 -2.355,-0.3504 -3.235,-1.0512 -0.881,-0.7008 -1.3207,-1.4887 -1.3207,-2.3648 l 0,-6.8321" />
<path d="m 166.665,10.8613 c 0.667,-0.2929 1.198,-0.6562 1.594,-1.0945 0.394,-0.4375 0.593,-1.3293 0.593,-2.6711 l 0,-6.131637 -10.116,0 c -1.519,0 -2.642,0.276167 -3.371,0.832027 -0.729,0.55469 -1.519,1.73711 -2.369,3.54766 l -9.204,20.84645 -2.551,-4.4675 0,-9.3719 c 0,-0.584 0.091,-0.9934 0.273,-1.227 0.182,-0.2332 0.394,-0.4675 0.638,-0.7 0.485,-0.3508 0.971,-0.84763 1.458,-1.48903 0.485,-0.64375 0.729,-1.46016 0.729,-2.45235 l 0,-5.518357 -18.499,0 0,5.518357 c 0,0.99219 0.243,1.8086 0.729,2.45235 0.486,0.6414 0.972,1.13823 1.458,1.48903 0.304,0.2325 0.532,0.4668 0.684,0.7 0.151,0.2336 0.228,0.643 0.228,1.227 l 0,42.7445 c 0,0.6414 -0.077,1.0797 -0.228,1.3141 -0.152,0.2324 -0.38,0.4379 -0.684,0.6125 -0.486,0.3508 -0.972,0.8461 -1.458,1.4894 -0.486,0.6418 -0.729,1.459 -0.729,2.4528 l 0,5.5179 18.499,0 0,-5.5179 c 0,-0.9938 -0.244,-1.811 -0.729,-2.4528 -0.487,-0.6433 -0.973,-1.1386 -1.458,-1.4894 -0.244,-0.1746 -0.456,-0.3801 -0.638,-0.6125 -0.182,-0.2344 -0.273,-0.6727 -0.273,-1.3141 l 0,-12.1754 12.301,21.1973 c 0.365,0.4078 0.759,0.7879 1.185,1.1387 0.364,0.2914 0.82,0.5695 1.367,0.832 0.547,0.2629 1.184,0.3941 1.913,0.3941 l 7.746,0 0,-5.5179 c 0,-2.3953 -0.669,-3.8543 -2.004,-4.3801 -0.547,-0.234 -1.049,-0.4817 -1.504,-0.7442 -0.456,-0.2628 -0.775,-0.5996 -0.957,-1.0074 -0.122,-0.2344 -0.623,-1.0812 -1.503,-2.5398 -0.882,-1.4606 -1.854,-3.1102 -2.916,-4.9492 -1.064,-1.8395 -2.082,-3.6211 -3.053,-5.343 -0.973,-1.7231 -1.64,-2.9344 -2.005,-3.6352 -0.123,-0.2929 -0.168,-0.5554 -0.137,-0.7882 0.03,-0.234 0.106,-0.5844 0.228,-1.0512 l 9.66,-22.4235 c 0.303,-0.6433 0.683,-1.1531 1.138,-1.5332 0.456,-0.3796 0.926,-0.6863 1.413,-0.9187 0.485,-0.2344 0.957,-0.3945 1.412,-0.4824 0.456,-0.0871 0.835,-0.1907 1.14,-0.3067" />
<path d="m 196.371,52.2047 c 0,1.0512 -0.213,1.8969 -0.639,2.5398 -0.425,0.6422 -0.925,1.1387 -1.502,1.4895 -0.578,0.35 -1.171,0.598 -1.777,0.7445 -0.609,0.1449 -1.094,0.2188 -1.459,0.2188 -0.363,0 -0.851,-0.0586 -1.457,-0.1754 -0.609,-0.1176 -1.217,-0.3364 -1.822,-0.6567 -0.61,-0.3218 -1.14,-0.7746 -1.596,-1.3574 -0.455,-0.5844 -0.683,-1.373 -0.683,-2.3652 l 0,-37.4895 c 0,-0.8758 0.182,-1.6062 0.546,-2.189 0.366,-0.584 0.821,-1.0508 1.368,-1.4016 0.546,-0.3508 1.154,-0.6133 1.822,-0.7883 0.668,-0.1758 1.275,-0.2625 1.822,-0.2625 1.276,0 2.49,0.3496 3.645,1.0508 1.154,0.7004 1.732,1.9266 1.732,3.6785 l 0,36.9637 z M 190.994,0.350781 c -5.649,0 -10.114,1.210549 -13.395,3.634379 -3.28,2.42304 -4.92,5.8832 -4.92,10.38004 l 0,38.8907 c 0,4.4957 1.624,7.9707 4.875,10.4234 3.249,2.4527 7.73,3.6785 13.44,3.6785 5.772,0 10.221,-1.2258 13.35,-3.6785 3.129,-2.4527 4.693,-5.9277 4.693,-10.4234 l 0,-38.8907 c 0,-4.49684 -1.58,-7.957 -4.738,-10.38004 -3.16,-2.42383 -7.594,-3.634379 -13.305,-3.634379" />
<path d="m 258.517,66.482 0,-5.8687 c 0,-0.9348 -0.229,-1.7082 -0.684,-2.3207 -0.456,-0.6133 -0.927,-1.0953 -1.412,-1.4453 -0.183,-0.1176 -0.351,-0.2782 -0.502,-0.4821 -0.152,-0.205 -0.259,-0.5117 -0.318,-0.9199 l 0,-51.94139 c 0,-1.05078 -0.199,-1.73828 -0.593,-2.0586 -0.396,-0.32148 -0.927,-0.481247 -1.595,-0.481247 l -5.559,0 c -1.701,0 -2.885,0.700777 -3.553,2.102347 -0.183,0.34961 -0.669,1.41484 -1.458,3.19648 -0.79,1.78086 -1.732,3.89801 -2.825,6.35041 -1.093,2.4531 -2.248,5.0652 -3.462,7.8398 -1.217,2.7727 -2.34,5.343 -3.372,7.7078 -1.034,2.3645 -1.913,4.3496 -2.643,5.9563 -0.728,1.6055 -1.094,2.4375 -1.094,2.4961 0,0.0578 -0.031,0.0578 -0.091,0 -0.061,-0.0586 -0.09,-0.2625 -0.09,-0.6129 l 0,-23.5617 c 0,-0.5254 0.121,-0.9067 0.364,-1.1387 0.242,-0.2348 0.516,-0.4387 0.82,-0.6137 0.424,-0.2929 0.865,-0.75974 1.321,-1.40114 0.456,-0.64336 0.684,-1.45977 0.684,-2.45313 l 0,-5.867967 -18.316,0 0,5.955857 c 0,0.9336 0.227,1.70781 0.683,2.3211 0.455,0.61367 0.926,1.06488 1.412,1.35738 0.183,0.1758 0.349,0.3508 0.501,0.5254 0.152,0.1762 0.258,0.4668 0.32,0.8762 l 0,43.8832 c -0.609,0.1754 -1.155,0.4668 -1.641,0.8762 -0.426,0.3504 -0.806,0.8457 -1.139,1.489 -0.335,0.6418 -0.501,1.459 -0.501,2.4528 l 0,5.7808 12.666,0 c 0.73,0 1.368,-0.35 1.914,-1.0507 0.546,-0.7012 0.912,-1.3446 1.093,-1.9274 0.121,-0.409 0.516,-1.4164 1.185,-3.0219 0.668,-1.6066 1.488,-3.534 2.461,-5.7808 0.97,-2.2492 2.018,-4.6578 3.143,-7.2266 1.123,-2.5703 2.171,-4.9926 3.144,-7.2699 0.972,-2.2774 1.807,-4.2633 2.506,-5.9559 0.698,-1.6953 1.139,-2.7742 1.321,-3.241 0.061,-0.1183 0.106,-0.1183 0.137,0 0.03,0.116 0.046,0.2625 0.046,0.4375 l 0,23.5625 c 0,0.5254 -0.122,0.9195 -0.365,1.182 -0.244,0.2629 -0.517,0.4821 -0.82,0.6575 -0.426,0.2914 -0.851,0.7441 -1.275,1.3574 -0.426,0.6133 -0.639,1.4453 -0.639,2.4965 l 0,5.7808 18.226,0" />
<path d="m 277.606,55.9273 c -0.273,-0.2628 -0.41,-0.5406 -0.41,-0.832 l 0,-14.5402 c 0,-0.409 0.137,-0.7156 0.41,-0.9199 0.274,-0.2051 0.593,-0.3067 0.957,-0.3067 l 11.482,0 c 0.304,0 0.622,-0.1023 0.957,-0.3066 0.333,-0.2051 0.501,-0.5406 0.501,-1.0067 l 0,-7.0074 c 0,-0.8183 -0.455,-1.2265 -1.366,-1.2265 l -11.574,0 c -0.911,0 -1.367,-0.3809 -1.367,-1.1387 l 0,-16.3797 c 0,-0.3496 0.152,-0.643 0.456,-0.875 0.303,-0.2348 0.638,-0.3508 1.002,-0.3508 l 7.29,0 c 0.547,0 0.972,0.291 1.277,0.8762 0.121,0.291 0.273,0.6414 0.455,1.0508 0.182,0.4082 0.44,0.7879 0.774,1.1382 0.334,0.3508 0.743,0.6575 1.231,0.9204 0.485,0.2625 1.062,0.3933 1.731,0.3933 l 5.65,0 0,-12.26287 c 0,-0.64258 -0.334,-1.16875 -1.002,-1.57618 -0.669,-0.40898 -1.337,-0.612887 -2.005,-0.612887 l -32.258,0 0,5.255467 c 0,1.2832 0.182,2.26172 0.547,2.9336 0.364,0.67109 0.849,1.15277 1.458,1.44527 0.728,0.4082 1.093,1.0215 1.093,1.8403 l 0,42.5691 c 0,0.9332 -0.396,1.6051 -1.185,2.0141 -0.607,0.2918 -1.079,0.7445 -1.412,1.3578 -0.335,0.6133 -0.501,1.5031 -0.501,2.6715 l 0,5.5187 32.622,0 c 0.729,0 1.352,-0.2633 1.868,-0.7886 0.516,-0.5254 0.775,-1.0227 0.775,-1.4887 l 0,-11.5625 -5.376,0 c -1.216,0 -2.188,0.2914 -2.916,0.8758 -0.73,0.5832 -1.247,1.1386 -1.549,1.6644 -0.426,0.7008 -1.064,1.0512 -1.914,1.0512 l -6.834,0 c -0.305,0 -0.593,-0.1317 -0.867,-0.3942" />
<path d="m 332.417,44.8473 c 2.064,0 3.857,-0.3508 5.376,-1.0512 1.519,-0.7008 2.764,-1.6645 3.736,-2.8906 0.971,-1.2262 1.686,-2.6426 2.142,-4.2485 0.455,-1.6066 0.683,-3.314 0.683,-5.1238 l 0,-17.343 c 0,-2.2195 -0.471,-4.20504 -1.413,-5.95582 C 341.999,6.48242 340.724,4.99336 339.114,3.7668 337.504,2.53984 335.666,1.60547 333.602,0.964063 331.535,0.322266 329.379,0 327.132,0 c -2.248,0 -4.42,0.322266 -6.516,0.964063 -2.095,0.641407 -3.949,1.575777 -5.558,2.802737 -1.611,1.22656 -2.902,2.71562 -3.873,4.46758 -0.972,1.75078 -1.458,3.73632 -1.458,5.95582 l 0,1.927 0.273,5.6055 2.461,0 c 0.728,0 1.549,-0.0149 2.46,-0.0442 0.911,-0.0293 1.822,-0.043 2.733,-0.043 1.094,-0.0593 1.96,-0.2925 2.598,-0.7007 0.638,-0.4094 1.139,-0.891 1.503,-1.4457 0.365,-0.5555 0.607,-1.109 0.729,-1.6637 0.121,-0.5559 0.183,-0.9785 0.183,-1.2707 l 0,-0.7879 c 0,-1.4602 0.394,-2.4961 1.185,-3.1098 0.788,-0.6132 1.822,-0.9195 3.097,-0.9195 1.277,0 2.369,0.2477 3.28,0.7449 0.913,0.4949 1.368,1.2395 1.368,2.2332 l 0,15.7668 c 0,0.9324 -0.319,1.6336 -0.957,2.1028 -0.638,0.4656 -1.747,0.7 -3.327,0.7 -0.911,0 -1.853,-0.1465 -2.824,-0.4383 -0.972,-0.2934 -1.458,-0.7883 -1.458,-1.4883 l 0,-0.4387 -6.469,0 c -0.366,0 -0.882,0.0442 -1.55,0.1317 -0.669,0.0871 -1.337,0.2765 -2.004,0.5695 -0.67,0.291 -1.246,0.7441 -1.732,1.3574 -0.487,0.6133 -0.729,1.4453 -0.729,2.4961 0.059,0.7008 0.121,1.7809 0.182,3.241 0.06,1.4594 0.137,3.0793 0.228,4.8614 0.091,1.7804 0.183,3.6347 0.273,5.5621 0.091,1.9269 0.183,3.7363 0.274,5.4308 0.091,1.693 0.167,3.1817 0.227,4.4668 0.06,1.2836 0.122,2.1594 0.183,2.6278 0.06,1.3429 0.47,2.4816 1.231,3.416 0.758,0.9336 1.806,1.4015 3.143,1.4015 l 23.236,0 c 2.37,0 3.554,-1.1101 3.554,-3.3289 l 0,-12.0871 -3.918,0 c -1.275,0 -2.567,0.2762 -3.873,0.832 -1.307,0.554 -2.111,1.0954 -2.415,1.6204 -0.182,0.2918 -0.409,0.5543 -0.683,0.7882 -0.273,0.2329 -0.745,0.3504 -1.413,0.3504 l -5.922,0 c -0.669,0 -1.018,-0.1175 -1.048,-0.3504 -0.032,-0.2339 -0.077,-0.6429 -0.137,-1.2261 0,-0.5844 -0.062,-1.6789 -0.183,-3.2844 -0.122,-1.607 -0.243,-3.3434 -0.364,-5.2117 0,-0.4684 0.196,-0.7746 0.593,-0.9199 0.394,-0.1465 0.682,-0.1618 0.865,-0.0438 0.911,0.4668 2.096,0.7887 3.554,0.9637 1.458,0.175 2.885,0.2629 4.283,0.2629" />
<path d="m 367.499,11.6504 c 0.485,-0.293 0.941,-0.7598 1.367,-1.4024 0.424,-0.64253 0.638,-1.48823 0.638,-2.5398 l 0,-6.744137 -18.134,0 0,6.744137 c 0,0.99219 0.228,1.79571 0.684,2.409 0.455,0.6133 0.895,1.1238 1.321,1.5332 0.547,0.5254 0.819,1.0207 0.819,1.4883 l 0,35.1246 c 0,0.5828 -0.364,0.8758 -1.092,0.8758 -0.547,0 -1.064,0.0285 -1.55,0.0875 -1.033,0.1164 -1.884,0.3504 -2.551,0.7007 -0.67,0.2915 -1.276,1.1082 -1.823,2.4528 -0.546,1.3426 -0.82,3.0652 -0.82,5.1676 l 0,1.664 c 1.882,0.1164 3.629,0.5395 5.24,1.2703 1.609,0.7293 2.748,1.9407 3.417,3.6352 0.059,0.1754 0.273,0.3941 0.637,0.6566 0.366,0.2629 0.789,0.5254 1.277,0.7887 0.485,0.2629 1.002,0.4949 1.549,0.7008 0.546,0.2035 1.062,0.3066 1.548,0.3066 l 6.198,0 0,-53.4312 c 0,-0.293 0.166,-0.584 0.501,-0.8758 0.333,-0.2922 0.591,-0.4961 0.774,-0.6125" />
</g></svg>
